<svg version="1.1"
  width="1920" height="1080"
  xmlns="http://www.w3.org/2000/svg"
  ><!-- Size the SVG as a HD wallpaper -->

  <!-- Show SVG contour -->
  <rect width="100%" height="100%" fill="none" stroke="red" />

  <g id="M" transform="translate(0, 0)">
    <path fill="none" stroke="pink" stroke-width="5"
      d="M220 550 l-30 -30 v-370
      l-10 -10 -50 50 -20 -20 90 -90 50 50
      l80 80 60 -60
      l-30 -30 40 -40 50 50 v340
      l10 10 50 -50 20 20 -90 90 -50 -50
      v-170 -60 l-60 60 -80 -80 
      v280 z
      "
    />
  </g>

  <g id="H" transform="translate(400, 0)">
    <path fill="none" stroke="pink" stroke-width="5"
      d="M220 550 l-30 -30 v-370
      l-10 -10 -50 50 -20 -20 90 -90 50 50
      v170 l80 -80 v-70
      l-30 -30 40 -40 50 50 v340
      l10 10 50 -50 20 20 -90 90 -50 -50
      v-170 l-80 80 v120 z
      "
    />
  </g>

</svg>
